<svg width="467" height="473" viewBox="0 0 467 473" fill="none" xmlns="http://www.w3.org/2000/svg">
<circle cx="237" cy="228" r="105" fill="#D3D710"/>
<path d="M237 0L271.641 105H202.359L237 0Z" fill="#D3D710"/>
<path d="M237 473L202.359 368H271.641L237 473Z" fill="#D3D710"/>
<path d="M0 210L105 175.359V244.641L0 210Z" fill="#D3D710"/>
<path d="M467 228L362 262.641L362 193.359L467 228Z" fill="#D3D710"/>
<path d="M415.497 387.497L316.756 337.746L365.746 288.756L415.497 387.497Z" fill="#D3D710"/>
<path d="M69.2843 52.2843L168.025 102.036L119.036 151.025L69.2843 52.2843Z" fill="#D3D710"/>
<path d="M50.2217 381.694L110.022 288.694L153.622 342.536L50.2217 381.694Z" fill="#D3D710"/>
<path d="M410.973 69.0858L351.173 162.086L307.573 108.243L410.973 69.0858Z" fill="#D3D710"/>
</svg>
