<?xml version="1.0" encoding="UTF-8" standalone="no"?>
<!-- Created with Inkscape (http://www.inkscape.org/) -->

<svg
   width="17.601028mm"
   height="20.085587mm"
   viewBox="0 0 17.601028 20.085587"
   version="1.1"
   id="svg5"
   xml:space="preserve"
   xmlns="http://www.w3.org/2000/svg"
   xmlns:svg="http://www.w3.org/2000/svg"><defs
     id="defs2" /><g
     id="layer1"
     transform="translate(-220.39643,-148.12114)"><path
       style="fill:#ebee29;fill-opacity:1;stroke-width:0.337106;stroke-linejoin:bevel"
       d="m 229.6496,158.90303 c 0,0 3.74534,-0.70706 5.43416,0.0698 1.31101,0.60311 3.71023,3.33939 3.71023,3.33939 0,0 -3.12035,0.28348 -4.92176,-0.3871 -1.71679,-0.639 -4.22264,-3.02208 -4.22264,-3.02208 z"
       id="path7150-08-6-7" /><path
       style="fill:#ebee29;fill-opacity:1;stroke-width:0.059218;stroke-linejoin:bevel"
       d="m 220.41926,161.94533 c 0,0 -0.41225,-1.68454 2.26714,-3.15347 2.67942,-1.46896 4.99808,0.0853 4.99808,0.0853 0,0 -0.38108,2.76528 -1.90843,3.14519 -1.52738,0.37989 -5.35679,-0.077 -5.35679,-0.077 z"
       id="path8553-7-7-0" /><path
       style="fill:#ebee29;fill-opacity:1;stroke-width:0.0635753;stroke-linejoin:bevel"
       d="m 227.94314,148.12115 c 0,0 2.94556,2.9522 3.29611,4.47234 0.35054,1.52013 -0.96192,5.14185 -0.96192,5.14185 0,0 -2.49535,-0.57645 -3.01468,-2.35445 -0.51933,-1.77799 0.68049,-7.25974 0.68049,-7.25974 z"
       id="path8555-9-18-0" /><path
       style="fill:#ebee29;fill-opacity:1;stroke-width:0.0565456;stroke-linejoin:bevel"
       d="m 229.8175,159.13804 c 0,0 1.10548,3.74685 0.27507,5.35413 -0.83039,1.60726 -3.96712,3.71455 -3.96712,3.71455 0,0 -2.3702,-4.58434 -0.87815,-6.01337 1.49208,-1.42902 4.5702,-3.05531 4.5702,-3.05531 z"
       id="path8557-7-49-5" /><path
       style="fill:#ebee29;fill-opacity:1;stroke-width:0.0472742;stroke-linejoin:bevel"
       d="m 227.95708,158.58252 c 0,0 -0.40083,-3.82944 -1.80181,-4.66157 -1.40099,-0.83213 -4.56794,-1.37315 -4.56794,-1.37315 0,0 1.07511,3.04921 2.11542,3.94824 1.04029,0.89901 4.25433,2.08648 4.25433,2.08648 z"
       id="path8559-5-7-6" /><path
       style="fill:#ebee29;fill-opacity:1;stroke-width:0.0548574;stroke-linejoin:bevel"
       d="m 228.824,157.7779 c 0,0 4.31865,1.14549 5.79926,-0.0306 1.48062,-1.17609 3.3742,-4.38757 3.3742,-4.38757 0,0 -3.75067,-0.0922 -5.15501,0.66505 -1.40432,0.75731 -4.01845,3.75312 -4.01845,3.75312 z"
       id="path8559-2-31-7" /><path
       style="fill:#ebee29;fill-opacity:1;stroke-width:0.0537239;stroke-linejoin:bevel"
       d="m 230.01682,161.28835 c 0,0 1.28587,-0.90662 3.41468,0.86905 2.1288,1.77569 1.58498,4.24903 1.58498,4.24903 0,0 -2.46154,0.59501 -3.28874,-0.56887 -0.8272,-1.16386 -1.71092,-4.54921 -1.71092,-4.54921 z"
       id="path8553-3-0-8" /><circle
       style="fill:#2c2005;fill-opacity:1;stroke-width:0.1;stroke-linejoin:bevel"
       id="path7418-2-0"
       cx="203.72888"
       cy="-190.14932"
       r="4.6717796"
       transform="rotate(77.825318)" /></g></svg>
