<?xml version="1.0" encoding="UTF-8" standalone="no"?>
<!-- Created with Inkscape (http://www.inkscape.org/) -->

<svg
   width="20.69342mm"
   height="19.687683mm"
   viewBox="0 0 20.69342 19.687683"
   version="1.1"
   id="svg5"
   xml:space="preserve"
   xmlns="http://www.w3.org/2000/svg"
   xmlns:svg="http://www.w3.org/2000/svg"><defs
     id="defs2" /><g
     id="layer2"
     transform="translate(-144.35454,-318.25574)"><path
       style="fill:#ffffff;fill-opacity:1;stroke:#000000;stroke-width:0.642;stroke-linejoin:bevel;stroke-dasharray:none;stroke-opacity:1"
       d="m 155.38943,327.77296 c 0,0 1.39935,-3.54531 2.95716,-4.55962 1.20938,-0.78735 4.80358,-1.35755 4.80358,-1.35755 0,0 -1.42435,2.79072 -2.95233,3.95692 -1.45615,1.11146 -4.80844,1.96025 -4.80844,1.96025 z"
       id="path7150-08-0-3-4-6-0" /><path
       style="fill:#ffffff;fill-opacity:1;stroke:#000000;stroke-width:0.66;stroke-linejoin:bevel;stroke-dasharray:none;stroke-opacity:1"
       d="m 153.24328,337.62411 c 0,0 -1.67817,-0.4375 -1.69789,-3.49306 -0.0197,-3.0556 2.44947,-4.35754 2.44947,-4.35754 0,0 2.25229,1.649 1.86101,3.17348 -0.39131,1.52449 -2.61259,4.67712 -2.61259,4.67712 z"
       id="path8553-7-39-6-1-7-5" /><path
       style="fill:#ffffff;fill-opacity:1;stroke:#000000;stroke-width:0.664;stroke-linejoin:bevel;stroke-dasharray:none;stroke-opacity:1"
       d="m 144.52376,325.70336 c 0,0 3.72765,-1.86987 5.281,-1.72547 1.5533,0.14445 4.57993,2.52748 4.57993,2.52748 0,0 -1.33072,2.1882 -3.18182,2.12313 -1.85114,-0.0651 -6.67911,-2.92514 -6.67911,-2.92514 z"
       id="path8555-9-8-5-8-8-2" /><path
       style="fill:#ffffff;fill-opacity:1;stroke:#000000;stroke-width:0.657;stroke-linejoin:bevel;stroke-dasharray:none;stroke-opacity:1"
       d="m 154.6202,328.54443 c 0,0 3.90574,-0.0781 5.23708,1.14688 1.33133,1.22492 2.53663,4.80639 2.53663,4.80639 0,0 -5.04716,1.07709 -6.03204,-0.73905 -0.98486,-1.81616 -1.74167,-5.21422 -1.74167,-5.21422 z"
       id="path8557-7-6-9-8-4-2" /><path
       style="fill:#ffffff;fill-opacity:1;stroke:#000000;stroke-width:0.648;stroke-linejoin:bevel;stroke-dasharray:none;stroke-opacity:1"
       d="m 154.00313,329.35449 c 0,0 -3.69677,-1.07667 -4.9968,-0.0943 -1.30003,0.98242 -2.99818,3.70977 -2.99818,3.70977 0,0 3.22934,0.15748 4.45495,-0.46572 1.22559,-0.62321 3.54003,-3.14978 3.54003,-3.14978 z"
       id="path8559-5-57-5-3-1-7" /><path
       style="fill:#ffffff;fill-opacity:1;stroke:#000000;stroke-width:0.656;stroke-linejoin:bevel;stroke-dasharray:none;stroke-opacity:1"
       d="m 155.16219,328.33201 c 0,0 1.91961,-4.0346 1.03564,-5.70612 -0.88396,-1.67153 -3.69278,-4.12304 -3.69278,-4.12304 0,0 -0.77993,3.66985 -0.2936,5.18944 0.48633,1.51956 2.95074,4.63972 2.95074,4.63972 z"
       id="path8559-2-6-4-5-7-3" /><path
       style="fill:#ffffff;fill-opacity:1;stroke:#000000;stroke-width:0.654;stroke-linejoin:bevel;stroke-dasharray:none;stroke-opacity:1"
       d="m 157.74224,328.88176 c 0,0 -0.0811,-1.57125 2.55627,-2.42504 2.63741,-0.85376 4.43962,0.92537 4.43962,0.92537 0,0 -0.80949,2.39956 -2.23519,2.47859 -1.42569,0.079 -4.7607,-0.97892 -4.7607,-0.97892 z"
       id="path8553-3-2-9-2-1-7" /><ellipse
       style="fill:#ffffff;fill-opacity:1;stroke:#000000;stroke-opacity:1"
       id="path7418-7-1-2-8-9"
       cx="356.46588"
       cy="70.880722"
       rx="3.8380606"
       ry="4.4633498"
       transform="rotate(53.477737)" /></g></svg>
